<mxfile host="app.diagrams.net" agent="Mozilla/5.0 (Windows NT 10.0; Win64; x64) AppleWebKit/537.36 (KHTML, like Gecko) Chrome/129.0.0.0 Safari/537.36 Edg/129.0.0.0" version="24.7.12">
  <diagram id="R2lEEEUBdFMjLlhIrx00" name="Page-1">
    <mxGraphModel dx="1593" dy="1008" grid="0" gridSize="10" guides="1" tooltips="1" connect="1" arrows="1" fold="1" page="0" pageScale="1" pageWidth="850" pageHeight="1100" background="#000000" math="0" shadow="0" extFonts="Permanent Marker^https://fonts.googleapis.com/css?family=Permanent+Marker">
      <root>
        <mxCell id="0" />
        <mxCell id="1" parent="0" />
        <mxCell id="C-vyLk0tnHw3VtMMgP7b-2" value="inscripcion" style="shape=table;startSize=30;container=1;collapsible=1;childLayout=tableLayout;fixedRows=1;rowLines=0;fontStyle=1;align=center;resizeLast=1;labelBackgroundColor=none;fillColor=#BC6C25;strokeColor=#DDA15E;fontColor=#FEFAE0;rounded=1;" parent="1" vertex="1">
          <mxGeometry x="690" y="360" width="250" height="190" as="geometry" />
        </mxCell>
        <mxCell id="C-vyLk0tnHw3VtMMgP7b-3" value="" style="shape=partialRectangle;collapsible=0;dropTarget=0;pointerEvents=0;fillColor=none;points=[[0,0.5],[1,0.5]];portConstraint=eastwest;top=0;left=0;right=0;bottom=1;labelBackgroundColor=none;strokeColor=#DDA15E;fontColor=#FEFAE0;rounded=1;" parent="C-vyLk0tnHw3VtMMgP7b-2" vertex="1">
          <mxGeometry y="30" width="250" height="30" as="geometry" />
        </mxCell>
        <mxCell id="C-vyLk0tnHw3VtMMgP7b-4" value="PK" style="shape=partialRectangle;overflow=hidden;connectable=0;fillColor=none;top=0;left=0;bottom=0;right=0;fontStyle=1;labelBackgroundColor=none;strokeColor=#DDA15E;fontColor=#FEFAE0;rounded=1;" parent="C-vyLk0tnHw3VtMMgP7b-3" vertex="1">
          <mxGeometry width="30" height="30" as="geometry">
            <mxRectangle width="30" height="30" as="alternateBounds" />
          </mxGeometry>
        </mxCell>
        <mxCell id="C-vyLk0tnHw3VtMMgP7b-5" value="inscripcion_id int NOT NULL " style="shape=partialRectangle;overflow=hidden;connectable=0;fillColor=none;top=0;left=0;bottom=0;right=0;align=left;spacingLeft=6;fontStyle=5;labelBackgroundColor=none;strokeColor=#DDA15E;fontColor=#FEFAE0;rounded=1;" parent="C-vyLk0tnHw3VtMMgP7b-3" vertex="1">
          <mxGeometry x="30" width="220" height="30" as="geometry">
            <mxRectangle width="220" height="30" as="alternateBounds" />
          </mxGeometry>
        </mxCell>
        <mxCell id="C-vyLk0tnHw3VtMMgP7b-6" value="" style="shape=partialRectangle;collapsible=0;dropTarget=0;pointerEvents=0;fillColor=none;points=[[0,0.5],[1,0.5]];portConstraint=eastwest;top=0;left=0;right=0;bottom=0;labelBackgroundColor=none;strokeColor=#DDA15E;fontColor=#FEFAE0;rounded=1;" parent="C-vyLk0tnHw3VtMMgP7b-2" vertex="1">
          <mxGeometry y="60" width="250" height="30" as="geometry" />
        </mxCell>
        <mxCell id="C-vyLk0tnHw3VtMMgP7b-7" value="FK1" style="shape=partialRectangle;overflow=hidden;connectable=0;fillColor=none;top=0;left=0;bottom=0;right=0;labelBackgroundColor=none;strokeColor=#DDA15E;fontColor=#FEFAE0;rounded=1;" parent="C-vyLk0tnHw3VtMMgP7b-6" vertex="1">
          <mxGeometry width="30" height="30" as="geometry">
            <mxRectangle width="30" height="30" as="alternateBounds" />
          </mxGeometry>
        </mxCell>
        <mxCell id="C-vyLk0tnHw3VtMMgP7b-8" value="alumno_id int NOT NULL" style="shape=partialRectangle;overflow=hidden;connectable=0;fillColor=none;top=0;left=0;bottom=0;right=0;align=left;spacingLeft=6;labelBackgroundColor=none;strokeColor=#DDA15E;fontColor=#FEFAE0;rounded=1;" parent="C-vyLk0tnHw3VtMMgP7b-6" vertex="1">
          <mxGeometry x="30" width="220" height="30" as="geometry">
            <mxRectangle width="220" height="30" as="alternateBounds" />
          </mxGeometry>
        </mxCell>
        <mxCell id="C-vyLk0tnHw3VtMMgP7b-9" value="" style="shape=partialRectangle;collapsible=0;dropTarget=0;pointerEvents=0;fillColor=none;points=[[0,0.5],[1,0.5]];portConstraint=eastwest;top=0;left=0;right=0;bottom=0;labelBackgroundColor=none;strokeColor=#DDA15E;fontColor=#FEFAE0;rounded=1;" parent="C-vyLk0tnHw3VtMMgP7b-2" vertex="1">
          <mxGeometry y="90" width="250" height="30" as="geometry" />
        </mxCell>
        <mxCell id="C-vyLk0tnHw3VtMMgP7b-10" value="FK2" style="shape=partialRectangle;overflow=hidden;connectable=0;fillColor=none;top=0;left=0;bottom=0;right=0;labelBackgroundColor=none;strokeColor=#DDA15E;fontColor=#FEFAE0;rounded=1;" parent="C-vyLk0tnHw3VtMMgP7b-9" vertex="1">
          <mxGeometry width="30" height="30" as="geometry">
            <mxRectangle width="30" height="30" as="alternateBounds" />
          </mxGeometry>
        </mxCell>
        <mxCell id="C-vyLk0tnHw3VtMMgP7b-11" value="bootcamp_id int NOT NULL" style="shape=partialRectangle;overflow=hidden;connectable=0;fillColor=none;top=0;left=0;bottom=0;right=0;align=left;spacingLeft=6;labelBackgroundColor=none;strokeColor=#DDA15E;fontColor=#FEFAE0;rounded=1;" parent="C-vyLk0tnHw3VtMMgP7b-9" vertex="1">
          <mxGeometry x="30" width="220" height="30" as="geometry">
            <mxRectangle width="220" height="30" as="alternateBounds" />
          </mxGeometry>
        </mxCell>
        <mxCell id="UyfrRTIY1BK4k6403gO7-22" value="" style="shape=partialRectangle;collapsible=0;dropTarget=0;pointerEvents=0;fillColor=none;points=[[0,0.5],[1,0.5]];portConstraint=eastwest;top=0;left=0;right=0;bottom=0;labelBackgroundColor=none;strokeColor=#DDA15E;fontColor=#FEFAE0;rounded=1;" vertex="1" parent="C-vyLk0tnHw3VtMMgP7b-2">
          <mxGeometry y="120" width="250" height="30" as="geometry" />
        </mxCell>
        <mxCell id="UyfrRTIY1BK4k6403gO7-23" value="" style="shape=partialRectangle;overflow=hidden;connectable=0;fillColor=none;top=0;left=0;bottom=0;right=0;labelBackgroundColor=none;strokeColor=#DDA15E;fontColor=#FEFAE0;rounded=1;" vertex="1" parent="UyfrRTIY1BK4k6403gO7-22">
          <mxGeometry width="30" height="30" as="geometry">
            <mxRectangle width="30" height="30" as="alternateBounds" />
          </mxGeometry>
        </mxCell>
        <mxCell id="UyfrRTIY1BK4k6403gO7-24" value="fecha_inscripcion date NOT NULL" style="shape=partialRectangle;overflow=hidden;connectable=0;fillColor=none;top=0;left=0;bottom=0;right=0;align=left;spacingLeft=6;labelBackgroundColor=none;strokeColor=#DDA15E;fontColor=#FEFAE0;rounded=1;" vertex="1" parent="UyfrRTIY1BK4k6403gO7-22">
          <mxGeometry x="30" width="220" height="30" as="geometry">
            <mxRectangle width="220" height="30" as="alternateBounds" />
          </mxGeometry>
        </mxCell>
        <mxCell id="UyfrRTIY1BK4k6403gO7-25" value="" style="shape=partialRectangle;collapsible=0;dropTarget=0;pointerEvents=0;fillColor=none;points=[[0,0.5],[1,0.5]];portConstraint=eastwest;top=0;left=0;right=0;bottom=0;labelBackgroundColor=none;strokeColor=#DDA15E;fontColor=#FEFAE0;rounded=1;" vertex="1" parent="C-vyLk0tnHw3VtMMgP7b-2">
          <mxGeometry y="150" width="250" height="30" as="geometry" />
        </mxCell>
        <mxCell id="UyfrRTIY1BK4k6403gO7-26" value="" style="shape=partialRectangle;overflow=hidden;connectable=0;fillColor=none;top=0;left=0;bottom=0;right=0;labelBackgroundColor=none;strokeColor=#DDA15E;fontColor=#FEFAE0;rounded=1;" vertex="1" parent="UyfrRTIY1BK4k6403gO7-25">
          <mxGeometry width="30" height="30" as="geometry">
            <mxRectangle width="30" height="30" as="alternateBounds" />
          </mxGeometry>
        </mxCell>
        <mxCell id="UyfrRTIY1BK4k6403gO7-27" value="estado varchar(255) NOT NULL" style="shape=partialRectangle;overflow=hidden;connectable=0;fillColor=none;top=0;left=0;bottom=0;right=0;align=left;spacingLeft=6;labelBackgroundColor=none;strokeColor=#DDA15E;fontColor=#FEFAE0;rounded=1;" vertex="1" parent="UyfrRTIY1BK4k6403gO7-25">
          <mxGeometry x="30" width="220" height="30" as="geometry">
            <mxRectangle width="220" height="30" as="alternateBounds" />
          </mxGeometry>
        </mxCell>
        <mxCell id="C-vyLk0tnHw3VtMMgP7b-13" value="alumno" style="shape=table;startSize=30;container=1;collapsible=1;childLayout=tableLayout;fixedRows=1;rowLines=0;fontStyle=1;align=center;resizeLast=1;labelBackgroundColor=none;fillColor=#BC6C25;strokeColor=#DDA15E;fontColor=#FEFAE0;rounded=1;" parent="1" vertex="1">
          <mxGeometry x="320" y="390" width="250" height="280" as="geometry" />
        </mxCell>
        <mxCell id="C-vyLk0tnHw3VtMMgP7b-14" value="" style="shape=partialRectangle;collapsible=0;dropTarget=0;pointerEvents=0;fillColor=none;points=[[0,0.5],[1,0.5]];portConstraint=eastwest;top=0;left=0;right=0;bottom=1;labelBackgroundColor=none;strokeColor=#DDA15E;fontColor=#FEFAE0;rounded=1;" parent="C-vyLk0tnHw3VtMMgP7b-13" vertex="1">
          <mxGeometry y="30" width="250" height="30" as="geometry" />
        </mxCell>
        <mxCell id="C-vyLk0tnHw3VtMMgP7b-15" value="PK" style="shape=partialRectangle;overflow=hidden;connectable=0;fillColor=none;top=0;left=0;bottom=0;right=0;fontStyle=1;labelBackgroundColor=none;strokeColor=#DDA15E;fontColor=#FEFAE0;rounded=1;" parent="C-vyLk0tnHw3VtMMgP7b-14" vertex="1">
          <mxGeometry width="30" height="30" as="geometry">
            <mxRectangle width="30" height="30" as="alternateBounds" />
          </mxGeometry>
        </mxCell>
        <mxCell id="C-vyLk0tnHw3VtMMgP7b-16" value="alumno_id int NOT NULL " style="shape=partialRectangle;overflow=hidden;connectable=0;fillColor=none;top=0;left=0;bottom=0;right=0;align=left;spacingLeft=6;fontStyle=5;labelBackgroundColor=none;strokeColor=#DDA15E;fontColor=#FEFAE0;rounded=1;" parent="C-vyLk0tnHw3VtMMgP7b-14" vertex="1">
          <mxGeometry x="30" width="220" height="30" as="geometry">
            <mxRectangle width="220" height="30" as="alternateBounds" />
          </mxGeometry>
        </mxCell>
        <mxCell id="C-vyLk0tnHw3VtMMgP7b-17" value="" style="shape=partialRectangle;collapsible=0;dropTarget=0;pointerEvents=0;fillColor=none;points=[[0,0.5],[1,0.5]];portConstraint=eastwest;top=0;left=0;right=0;bottom=0;labelBackgroundColor=none;strokeColor=#DDA15E;fontColor=#FEFAE0;rounded=1;" parent="C-vyLk0tnHw3VtMMgP7b-13" vertex="1">
          <mxGeometry y="60" width="250" height="30" as="geometry" />
        </mxCell>
        <mxCell id="C-vyLk0tnHw3VtMMgP7b-18" value="" style="shape=partialRectangle;overflow=hidden;connectable=0;fillColor=none;top=0;left=0;bottom=0;right=0;labelBackgroundColor=none;strokeColor=#DDA15E;fontColor=#FEFAE0;rounded=1;" parent="C-vyLk0tnHw3VtMMgP7b-17" vertex="1">
          <mxGeometry width="30" height="30" as="geometry">
            <mxRectangle width="30" height="30" as="alternateBounds" />
          </mxGeometry>
        </mxCell>
        <mxCell id="C-vyLk0tnHw3VtMMgP7b-19" value="nombre varchar(255)  NOT NULL" style="shape=partialRectangle;overflow=hidden;connectable=0;fillColor=none;top=0;left=0;bottom=0;right=0;align=left;spacingLeft=6;labelBackgroundColor=none;strokeColor=#DDA15E;fontColor=#FEFAE0;rounded=1;" parent="C-vyLk0tnHw3VtMMgP7b-17" vertex="1">
          <mxGeometry x="30" width="220" height="30" as="geometry">
            <mxRectangle width="220" height="30" as="alternateBounds" />
          </mxGeometry>
        </mxCell>
        <mxCell id="C-vyLk0tnHw3VtMMgP7b-20" value="" style="shape=partialRectangle;collapsible=0;dropTarget=0;pointerEvents=0;fillColor=none;points=[[0,0.5],[1,0.5]];portConstraint=eastwest;top=0;left=0;right=0;bottom=0;labelBackgroundColor=none;strokeColor=#DDA15E;fontColor=#FEFAE0;rounded=1;" parent="C-vyLk0tnHw3VtMMgP7b-13" vertex="1">
          <mxGeometry y="90" width="250" height="30" as="geometry" />
        </mxCell>
        <mxCell id="C-vyLk0tnHw3VtMMgP7b-21" value="" style="shape=partialRectangle;overflow=hidden;connectable=0;fillColor=none;top=0;left=0;bottom=0;right=0;labelBackgroundColor=none;strokeColor=#DDA15E;fontColor=#FEFAE0;rounded=1;" parent="C-vyLk0tnHw3VtMMgP7b-20" vertex="1">
          <mxGeometry width="30" height="30" as="geometry">
            <mxRectangle width="30" height="30" as="alternateBounds" />
          </mxGeometry>
        </mxCell>
        <mxCell id="C-vyLk0tnHw3VtMMgP7b-22" value="apellido varchar(255) NOT NULL" style="shape=partialRectangle;overflow=hidden;connectable=0;fillColor=none;top=0;left=0;bottom=0;right=0;align=left;spacingLeft=6;labelBackgroundColor=none;strokeColor=#DDA15E;fontColor=#FEFAE0;rounded=1;" parent="C-vyLk0tnHw3VtMMgP7b-20" vertex="1">
          <mxGeometry x="30" width="220" height="30" as="geometry">
            <mxRectangle width="220" height="30" as="alternateBounds" />
          </mxGeometry>
        </mxCell>
        <mxCell id="UyfrRTIY1BK4k6403gO7-1" value="" style="shape=partialRectangle;collapsible=0;dropTarget=0;pointerEvents=0;fillColor=none;points=[[0,0.5],[1,0.5]];portConstraint=eastwest;top=0;left=0;right=0;bottom=0;labelBackgroundColor=none;strokeColor=#DDA15E;fontColor=#FEFAE0;rounded=1;" vertex="1" parent="C-vyLk0tnHw3VtMMgP7b-13">
          <mxGeometry y="120" width="250" height="30" as="geometry" />
        </mxCell>
        <mxCell id="UyfrRTIY1BK4k6403gO7-2" value="" style="shape=partialRectangle;overflow=hidden;connectable=0;fillColor=none;top=0;left=0;bottom=0;right=0;labelBackgroundColor=none;strokeColor=#DDA15E;fontColor=#FEFAE0;rounded=1;" vertex="1" parent="UyfrRTIY1BK4k6403gO7-1">
          <mxGeometry width="30" height="30" as="geometry">
            <mxRectangle width="30" height="30" as="alternateBounds" />
          </mxGeometry>
        </mxCell>
        <mxCell id="UyfrRTIY1BK4k6403gO7-3" value="email varchar(255) NOT NULL" style="shape=partialRectangle;overflow=hidden;connectable=0;fillColor=none;top=0;left=0;bottom=0;right=0;align=left;spacingLeft=6;labelBackgroundColor=none;strokeColor=#DDA15E;fontColor=#FEFAE0;rounded=1;" vertex="1" parent="UyfrRTIY1BK4k6403gO7-1">
          <mxGeometry x="30" width="220" height="30" as="geometry">
            <mxRectangle width="220" height="30" as="alternateBounds" />
          </mxGeometry>
        </mxCell>
        <mxCell id="UyfrRTIY1BK4k6403gO7-4" value="" style="shape=partialRectangle;collapsible=0;dropTarget=0;pointerEvents=0;fillColor=none;points=[[0,0.5],[1,0.5]];portConstraint=eastwest;top=0;left=0;right=0;bottom=0;labelBackgroundColor=none;strokeColor=#DDA15E;fontColor=#FEFAE0;rounded=1;" vertex="1" parent="C-vyLk0tnHw3VtMMgP7b-13">
          <mxGeometry y="150" width="250" height="30" as="geometry" />
        </mxCell>
        <mxCell id="UyfrRTIY1BK4k6403gO7-5" value="" style="shape=partialRectangle;overflow=hidden;connectable=0;fillColor=none;top=0;left=0;bottom=0;right=0;labelBackgroundColor=none;strokeColor=#DDA15E;fontColor=#FEFAE0;rounded=1;" vertex="1" parent="UyfrRTIY1BK4k6403gO7-4">
          <mxGeometry width="30" height="30" as="geometry">
            <mxRectangle width="30" height="30" as="alternateBounds" />
          </mxGeometry>
        </mxCell>
        <mxCell id="UyfrRTIY1BK4k6403gO7-6" value="telefono varchar(20) NOT NULL" style="shape=partialRectangle;overflow=hidden;connectable=0;fillColor=none;top=0;left=0;bottom=0;right=0;align=left;spacingLeft=6;labelBackgroundColor=none;strokeColor=#DDA15E;fontColor=#FEFAE0;rounded=1;" vertex="1" parent="UyfrRTIY1BK4k6403gO7-4">
          <mxGeometry x="30" width="220" height="30" as="geometry">
            <mxRectangle width="220" height="30" as="alternateBounds" />
          </mxGeometry>
        </mxCell>
        <mxCell id="UyfrRTIY1BK4k6403gO7-7" value="" style="shape=partialRectangle;collapsible=0;dropTarget=0;pointerEvents=0;fillColor=none;points=[[0,0.5],[1,0.5]];portConstraint=eastwest;top=0;left=0;right=0;bottom=0;labelBackgroundColor=none;strokeColor=#DDA15E;fontColor=#FEFAE0;rounded=1;" vertex="1" parent="C-vyLk0tnHw3VtMMgP7b-13">
          <mxGeometry y="180" width="250" height="30" as="geometry" />
        </mxCell>
        <mxCell id="UyfrRTIY1BK4k6403gO7-8" value="" style="shape=partialRectangle;overflow=hidden;connectable=0;fillColor=none;top=0;left=0;bottom=0;right=0;labelBackgroundColor=none;strokeColor=#DDA15E;fontColor=#FEFAE0;rounded=1;" vertex="1" parent="UyfrRTIY1BK4k6403gO7-7">
          <mxGeometry width="30" height="30" as="geometry">
            <mxRectangle width="30" height="30" as="alternateBounds" />
          </mxGeometry>
        </mxCell>
        <mxCell id="UyfrRTIY1BK4k6403gO7-9" value="fecha_nacimiento date NOT NULL" style="shape=partialRectangle;overflow=hidden;connectable=0;fillColor=none;top=0;left=0;bottom=0;right=0;align=left;spacingLeft=6;labelBackgroundColor=none;strokeColor=#DDA15E;fontColor=#FEFAE0;rounded=1;" vertex="1" parent="UyfrRTIY1BK4k6403gO7-7">
          <mxGeometry x="30" width="220" height="30" as="geometry">
            <mxRectangle width="220" height="30" as="alternateBounds" />
          </mxGeometry>
        </mxCell>
        <mxCell id="UyfrRTIY1BK4k6403gO7-10" value="" style="shape=partialRectangle;collapsible=0;dropTarget=0;pointerEvents=0;fillColor=none;points=[[0,0.5],[1,0.5]];portConstraint=eastwest;top=0;left=0;right=0;bottom=0;labelBackgroundColor=none;strokeColor=#DDA15E;fontColor=#FEFAE0;rounded=1;" vertex="1" parent="C-vyLk0tnHw3VtMMgP7b-13">
          <mxGeometry y="210" width="250" height="30" as="geometry" />
        </mxCell>
        <mxCell id="UyfrRTIY1BK4k6403gO7-11" value="FK1" style="shape=partialRectangle;overflow=hidden;connectable=0;fillColor=none;top=0;left=0;bottom=0;right=0;labelBackgroundColor=none;strokeColor=#DDA15E;fontColor=#FEFAE0;rounded=1;" vertex="1" parent="UyfrRTIY1BK4k6403gO7-10">
          <mxGeometry width="30" height="30" as="geometry">
            <mxRectangle width="30" height="30" as="alternateBounds" />
          </mxGeometry>
        </mxCell>
        <mxCell id="UyfrRTIY1BK4k6403gO7-12" value="direccion_id int NOT NULL" style="shape=partialRectangle;overflow=hidden;connectable=0;fillColor=none;top=0;left=0;bottom=0;right=0;align=left;spacingLeft=6;labelBackgroundColor=none;strokeColor=#DDA15E;fontColor=#FEFAE0;rounded=1;" vertex="1" parent="UyfrRTIY1BK4k6403gO7-10">
          <mxGeometry x="30" width="220" height="30" as="geometry">
            <mxRectangle width="220" height="30" as="alternateBounds" />
          </mxGeometry>
        </mxCell>
        <mxCell id="UyfrRTIY1BK4k6403gO7-13" value="" style="shape=partialRectangle;collapsible=0;dropTarget=0;pointerEvents=0;fillColor=none;points=[[0,0.5],[1,0.5]];portConstraint=eastwest;top=0;left=0;right=0;bottom=0;labelBackgroundColor=none;strokeColor=#DDA15E;fontColor=#FEFAE0;rounded=1;" vertex="1" parent="C-vyLk0tnHw3VtMMgP7b-13">
          <mxGeometry y="240" width="250" height="30" as="geometry" />
        </mxCell>
        <mxCell id="UyfrRTIY1BK4k6403gO7-14" value="" style="shape=partialRectangle;overflow=hidden;connectable=0;fillColor=none;top=0;left=0;bottom=0;right=0;labelBackgroundColor=none;strokeColor=#DDA15E;fontColor=#FEFAE0;rounded=1;" vertex="1" parent="UyfrRTIY1BK4k6403gO7-13">
          <mxGeometry width="30" height="30" as="geometry">
            <mxRectangle width="30" height="30" as="alternateBounds" />
          </mxGeometry>
        </mxCell>
        <mxCell id="UyfrRTIY1BK4k6403gO7-15" value="tipo_alumno varchar(255) NOT NULL" style="shape=partialRectangle;overflow=hidden;connectable=0;fillColor=none;top=0;left=0;bottom=0;right=0;align=left;spacingLeft=6;labelBackgroundColor=none;strokeColor=#DDA15E;fontColor=#FEFAE0;rounded=1;" vertex="1" parent="UyfrRTIY1BK4k6403gO7-13">
          <mxGeometry x="30" width="220" height="30" as="geometry">
            <mxRectangle width="220" height="30" as="alternateBounds" />
          </mxGeometry>
        </mxCell>
        <mxCell id="C-vyLk0tnHw3VtMMgP7b-23" value="bootcamp" style="shape=table;startSize=30;container=1;collapsible=1;childLayout=tableLayout;fixedRows=1;rowLines=0;fontStyle=1;align=center;resizeLast=1;labelBackgroundColor=none;fillColor=#BC6C25;strokeColor=#DDA15E;fontColor=#FEFAE0;rounded=1;" parent="1" vertex="1">
          <mxGeometry x="700" y="70" width="250" height="220" as="geometry" />
        </mxCell>
        <mxCell id="C-vyLk0tnHw3VtMMgP7b-24" value="" style="shape=partialRectangle;collapsible=0;dropTarget=0;pointerEvents=0;fillColor=none;points=[[0,0.5],[1,0.5]];portConstraint=eastwest;top=0;left=0;right=0;bottom=1;labelBackgroundColor=none;strokeColor=#DDA15E;fontColor=#FEFAE0;rounded=1;" parent="C-vyLk0tnHw3VtMMgP7b-23" vertex="1">
          <mxGeometry y="30" width="250" height="30" as="geometry" />
        </mxCell>
        <mxCell id="C-vyLk0tnHw3VtMMgP7b-25" value="PK" style="shape=partialRectangle;overflow=hidden;connectable=0;fillColor=none;top=0;left=0;bottom=0;right=0;fontStyle=1;labelBackgroundColor=none;strokeColor=#DDA15E;fontColor=#FEFAE0;rounded=1;" parent="C-vyLk0tnHw3VtMMgP7b-24" vertex="1">
          <mxGeometry width="30" height="30" as="geometry">
            <mxRectangle width="30" height="30" as="alternateBounds" />
          </mxGeometry>
        </mxCell>
        <mxCell id="C-vyLk0tnHw3VtMMgP7b-26" value="bootcamp_id int NOT NULL " style="shape=partialRectangle;overflow=hidden;connectable=0;fillColor=none;top=0;left=0;bottom=0;right=0;align=left;spacingLeft=6;fontStyle=5;labelBackgroundColor=none;strokeColor=#DDA15E;fontColor=#FEFAE0;rounded=1;" parent="C-vyLk0tnHw3VtMMgP7b-24" vertex="1">
          <mxGeometry x="30" width="220" height="30" as="geometry">
            <mxRectangle width="220" height="30" as="alternateBounds" />
          </mxGeometry>
        </mxCell>
        <mxCell id="C-vyLk0tnHw3VtMMgP7b-27" value="" style="shape=partialRectangle;collapsible=0;dropTarget=0;pointerEvents=0;fillColor=none;points=[[0,0.5],[1,0.5]];portConstraint=eastwest;top=0;left=0;right=0;bottom=0;labelBackgroundColor=none;strokeColor=#DDA15E;fontColor=#FEFAE0;rounded=1;" parent="C-vyLk0tnHw3VtMMgP7b-23" vertex="1">
          <mxGeometry y="60" width="250" height="30" as="geometry" />
        </mxCell>
        <mxCell id="C-vyLk0tnHw3VtMMgP7b-28" value="" style="shape=partialRectangle;overflow=hidden;connectable=0;fillColor=none;top=0;left=0;bottom=0;right=0;labelBackgroundColor=none;strokeColor=#DDA15E;fontColor=#FEFAE0;rounded=1;" parent="C-vyLk0tnHw3VtMMgP7b-27" vertex="1">
          <mxGeometry width="30" height="30" as="geometry">
            <mxRectangle width="30" height="30" as="alternateBounds" />
          </mxGeometry>
        </mxCell>
        <mxCell id="C-vyLk0tnHw3VtMMgP7b-29" value="nombre varchar(255)  NOT NULL" style="shape=partialRectangle;overflow=hidden;connectable=0;fillColor=none;top=0;left=0;bottom=0;right=0;align=left;spacingLeft=6;labelBackgroundColor=none;strokeColor=#DDA15E;fontColor=#FEFAE0;rounded=1;" parent="C-vyLk0tnHw3VtMMgP7b-27" vertex="1">
          <mxGeometry x="30" width="220" height="30" as="geometry">
            <mxRectangle width="220" height="30" as="alternateBounds" />
          </mxGeometry>
        </mxCell>
        <mxCell id="UyfrRTIY1BK4k6403gO7-28" value="" style="shape=partialRectangle;collapsible=0;dropTarget=0;pointerEvents=0;fillColor=none;points=[[0,0.5],[1,0.5]];portConstraint=eastwest;top=0;left=0;right=0;bottom=0;labelBackgroundColor=none;strokeColor=#DDA15E;fontColor=#FEFAE0;rounded=1;" vertex="1" parent="C-vyLk0tnHw3VtMMgP7b-23">
          <mxGeometry y="90" width="250" height="30" as="geometry" />
        </mxCell>
        <mxCell id="UyfrRTIY1BK4k6403gO7-29" value="" style="shape=partialRectangle;overflow=hidden;connectable=0;fillColor=none;top=0;left=0;bottom=0;right=0;labelBackgroundColor=none;strokeColor=#DDA15E;fontColor=#FEFAE0;rounded=1;" vertex="1" parent="UyfrRTIY1BK4k6403gO7-28">
          <mxGeometry width="30" height="30" as="geometry">
            <mxRectangle width="30" height="30" as="alternateBounds" />
          </mxGeometry>
        </mxCell>
        <mxCell id="UyfrRTIY1BK4k6403gO7-30" value="descripcion varchar(255)  NOT NULL" style="shape=partialRectangle;overflow=hidden;connectable=0;fillColor=none;top=0;left=0;bottom=0;right=0;align=left;spacingLeft=6;labelBackgroundColor=none;strokeColor=#DDA15E;fontColor=#FEFAE0;rounded=1;" vertex="1" parent="UyfrRTIY1BK4k6403gO7-28">
          <mxGeometry x="30" width="220" height="30" as="geometry">
            <mxRectangle width="220" height="30" as="alternateBounds" />
          </mxGeometry>
        </mxCell>
        <mxCell id="UyfrRTIY1BK4k6403gO7-31" value="" style="shape=partialRectangle;collapsible=0;dropTarget=0;pointerEvents=0;fillColor=none;points=[[0,0.5],[1,0.5]];portConstraint=eastwest;top=0;left=0;right=0;bottom=0;labelBackgroundColor=none;strokeColor=#DDA15E;fontColor=#FEFAE0;rounded=1;" vertex="1" parent="C-vyLk0tnHw3VtMMgP7b-23">
          <mxGeometry y="120" width="250" height="30" as="geometry" />
        </mxCell>
        <mxCell id="UyfrRTIY1BK4k6403gO7-32" value="" style="shape=partialRectangle;overflow=hidden;connectable=0;fillColor=none;top=0;left=0;bottom=0;right=0;labelBackgroundColor=none;strokeColor=#DDA15E;fontColor=#FEFAE0;rounded=1;" vertex="1" parent="UyfrRTIY1BK4k6403gO7-31">
          <mxGeometry width="30" height="30" as="geometry">
            <mxRectangle width="30" height="30" as="alternateBounds" />
          </mxGeometry>
        </mxCell>
        <mxCell id="UyfrRTIY1BK4k6403gO7-33" value="duracion interval  NOT NULL" style="shape=partialRectangle;overflow=hidden;connectable=0;fillColor=none;top=0;left=0;bottom=0;right=0;align=left;spacingLeft=6;labelBackgroundColor=none;strokeColor=#DDA15E;fontColor=#FEFAE0;rounded=1;" vertex="1" parent="UyfrRTIY1BK4k6403gO7-31">
          <mxGeometry x="30" width="220" height="30" as="geometry">
            <mxRectangle width="220" height="30" as="alternateBounds" />
          </mxGeometry>
        </mxCell>
        <mxCell id="UyfrRTIY1BK4k6403gO7-34" value="" style="shape=partialRectangle;collapsible=0;dropTarget=0;pointerEvents=0;fillColor=none;points=[[0,0.5],[1,0.5]];portConstraint=eastwest;top=0;left=0;right=0;bottom=0;labelBackgroundColor=none;strokeColor=#DDA15E;fontColor=#FEFAE0;rounded=1;" vertex="1" parent="C-vyLk0tnHw3VtMMgP7b-23">
          <mxGeometry y="150" width="250" height="30" as="geometry" />
        </mxCell>
        <mxCell id="UyfrRTIY1BK4k6403gO7-35" value="" style="shape=partialRectangle;overflow=hidden;connectable=0;fillColor=none;top=0;left=0;bottom=0;right=0;labelBackgroundColor=none;strokeColor=#DDA15E;fontColor=#FEFAE0;rounded=1;" vertex="1" parent="UyfrRTIY1BK4k6403gO7-34">
          <mxGeometry width="30" height="30" as="geometry">
            <mxRectangle width="30" height="30" as="alternateBounds" />
          </mxGeometry>
        </mxCell>
        <mxCell id="UyfrRTIY1BK4k6403gO7-36" value="fecha_inicio date  NOT NULL" style="shape=partialRectangle;overflow=hidden;connectable=0;fillColor=none;top=0;left=0;bottom=0;right=0;align=left;spacingLeft=6;labelBackgroundColor=none;strokeColor=#DDA15E;fontColor=#FEFAE0;rounded=1;" vertex="1" parent="UyfrRTIY1BK4k6403gO7-34">
          <mxGeometry x="30" width="220" height="30" as="geometry">
            <mxRectangle width="220" height="30" as="alternateBounds" />
          </mxGeometry>
        </mxCell>
        <mxCell id="UyfrRTIY1BK4k6403gO7-37" value="" style="shape=partialRectangle;collapsible=0;dropTarget=0;pointerEvents=0;fillColor=none;points=[[0,0.5],[1,0.5]];portConstraint=eastwest;top=0;left=0;right=0;bottom=0;labelBackgroundColor=none;strokeColor=#DDA15E;fontColor=#FEFAE0;rounded=1;" vertex="1" parent="C-vyLk0tnHw3VtMMgP7b-23">
          <mxGeometry y="180" width="250" height="30" as="geometry" />
        </mxCell>
        <mxCell id="UyfrRTIY1BK4k6403gO7-38" value="" style="shape=partialRectangle;overflow=hidden;connectable=0;fillColor=none;top=0;left=0;bottom=0;right=0;labelBackgroundColor=none;strokeColor=#DDA15E;fontColor=#FEFAE0;rounded=1;" vertex="1" parent="UyfrRTIY1BK4k6403gO7-37">
          <mxGeometry width="30" height="30" as="geometry">
            <mxRectangle width="30" height="30" as="alternateBounds" />
          </mxGeometry>
        </mxCell>
        <mxCell id="UyfrRTIY1BK4k6403gO7-39" value="fecha_fin date  NOT NULL" style="shape=partialRectangle;overflow=hidden;connectable=0;fillColor=none;top=0;left=0;bottom=0;right=0;align=left;spacingLeft=6;labelBackgroundColor=none;strokeColor=#DDA15E;fontColor=#FEFAE0;rounded=1;" vertex="1" parent="UyfrRTIY1BK4k6403gO7-37">
          <mxGeometry x="30" width="220" height="30" as="geometry">
            <mxRectangle width="220" height="30" as="alternateBounds" />
          </mxGeometry>
        </mxCell>
        <mxCell id="UyfrRTIY1BK4k6403gO7-17" style="edgeStyle=orthogonalEdgeStyle;rounded=1;orthogonalLoop=1;jettySize=auto;html=1;exitX=1;exitY=0.5;exitDx=0;exitDy=0;entryX=0;entryY=0.5;entryDx=0;entryDy=0;endArrow=ERmany;endFill=0;labelBackgroundColor=none;fontColor=default;strokeColor=#DDA15E;" edge="1" parent="1" source="C-vyLk0tnHw3VtMMgP7b-14" target="C-vyLk0tnHw3VtMMgP7b-6">
          <mxGeometry relative="1" as="geometry">
            <Array as="points">
              <mxPoint x="690" y="435" />
            </Array>
          </mxGeometry>
        </mxCell>
        <mxCell id="UyfrRTIY1BK4k6403gO7-20" style="edgeStyle=orthogonalEdgeStyle;rounded=1;orthogonalLoop=1;jettySize=auto;html=1;exitX=0;exitY=0.5;exitDx=0;exitDy=0;entryX=1;entryY=0.5;entryDx=0;entryDy=0;endArrow=ERmany;endFill=0;labelBackgroundColor=none;fontColor=default;strokeColor=#DDA15E;" edge="1" parent="1" source="C-vyLk0tnHw3VtMMgP7b-6" target="C-vyLk0tnHw3VtMMgP7b-14">
          <mxGeometry relative="1" as="geometry">
            <Array as="points">
              <mxPoint x="690" y="435" />
            </Array>
          </mxGeometry>
        </mxCell>
        <mxCell id="UyfrRTIY1BK4k6403gO7-43" value="modulo" style="shape=table;startSize=30;container=1;collapsible=1;childLayout=tableLayout;fixedRows=1;rowLines=0;fontStyle=1;align=center;resizeLast=1;labelBackgroundColor=none;fillColor=#BC6C25;strokeColor=#DDA15E;fontColor=#FEFAE0;rounded=1;" vertex="1" parent="1">
          <mxGeometry x="1070" y="70" width="250" height="190" as="geometry" />
        </mxCell>
        <mxCell id="UyfrRTIY1BK4k6403gO7-44" value="" style="shape=partialRectangle;collapsible=0;dropTarget=0;pointerEvents=0;fillColor=none;points=[[0,0.5],[1,0.5]];portConstraint=eastwest;top=0;left=0;right=0;bottom=1;labelBackgroundColor=none;strokeColor=#DDA15E;fontColor=#FEFAE0;rounded=1;" vertex="1" parent="UyfrRTIY1BK4k6403gO7-43">
          <mxGeometry y="30" width="250" height="30" as="geometry" />
        </mxCell>
        <mxCell id="UyfrRTIY1BK4k6403gO7-45" value="PK" style="shape=partialRectangle;overflow=hidden;connectable=0;fillColor=none;top=0;left=0;bottom=0;right=0;fontStyle=1;labelBackgroundColor=none;strokeColor=#DDA15E;fontColor=#FEFAE0;rounded=1;" vertex="1" parent="UyfrRTIY1BK4k6403gO7-44">
          <mxGeometry width="30" height="30" as="geometry">
            <mxRectangle width="30" height="30" as="alternateBounds" />
          </mxGeometry>
        </mxCell>
        <mxCell id="UyfrRTIY1BK4k6403gO7-46" value="modulo_id int NOT NULL " style="shape=partialRectangle;overflow=hidden;connectable=0;fillColor=none;top=0;left=0;bottom=0;right=0;align=left;spacingLeft=6;fontStyle=5;labelBackgroundColor=none;strokeColor=#DDA15E;fontColor=#FEFAE0;rounded=1;" vertex="1" parent="UyfrRTIY1BK4k6403gO7-44">
          <mxGeometry x="30" width="220" height="30" as="geometry">
            <mxRectangle width="220" height="30" as="alternateBounds" />
          </mxGeometry>
        </mxCell>
        <mxCell id="UyfrRTIY1BK4k6403gO7-47" value="" style="shape=partialRectangle;collapsible=0;dropTarget=0;pointerEvents=0;fillColor=none;points=[[0,0.5],[1,0.5]];portConstraint=eastwest;top=0;left=0;right=0;bottom=0;labelBackgroundColor=none;strokeColor=#DDA15E;fontColor=#FEFAE0;rounded=1;" vertex="1" parent="UyfrRTIY1BK4k6403gO7-43">
          <mxGeometry y="60" width="250" height="30" as="geometry" />
        </mxCell>
        <mxCell id="UyfrRTIY1BK4k6403gO7-48" value="" style="shape=partialRectangle;overflow=hidden;connectable=0;fillColor=none;top=0;left=0;bottom=0;right=0;labelBackgroundColor=none;strokeColor=#DDA15E;fontColor=#FEFAE0;rounded=1;" vertex="1" parent="UyfrRTIY1BK4k6403gO7-47">
          <mxGeometry width="30" height="30" as="geometry">
            <mxRectangle width="30" height="30" as="alternateBounds" />
          </mxGeometry>
        </mxCell>
        <mxCell id="UyfrRTIY1BK4k6403gO7-49" value="nombre varchar(255)  NOT NULL" style="shape=partialRectangle;overflow=hidden;connectable=0;fillColor=none;top=0;left=0;bottom=0;right=0;align=left;spacingLeft=6;labelBackgroundColor=none;strokeColor=#DDA15E;fontColor=#FEFAE0;rounded=1;" vertex="1" parent="UyfrRTIY1BK4k6403gO7-47">
          <mxGeometry x="30" width="220" height="30" as="geometry">
            <mxRectangle width="220" height="30" as="alternateBounds" />
          </mxGeometry>
        </mxCell>
        <mxCell id="UyfrRTIY1BK4k6403gO7-50" value="" style="shape=partialRectangle;collapsible=0;dropTarget=0;pointerEvents=0;fillColor=none;points=[[0,0.5],[1,0.5]];portConstraint=eastwest;top=0;left=0;right=0;bottom=0;labelBackgroundColor=none;strokeColor=#DDA15E;fontColor=#FEFAE0;rounded=1;" vertex="1" parent="UyfrRTIY1BK4k6403gO7-43">
          <mxGeometry y="90" width="250" height="30" as="geometry" />
        </mxCell>
        <mxCell id="UyfrRTIY1BK4k6403gO7-51" value="" style="shape=partialRectangle;overflow=hidden;connectable=0;fillColor=none;top=0;left=0;bottom=0;right=0;labelBackgroundColor=none;strokeColor=#DDA15E;fontColor=#FEFAE0;rounded=1;" vertex="1" parent="UyfrRTIY1BK4k6403gO7-50">
          <mxGeometry width="30" height="30" as="geometry">
            <mxRectangle width="30" height="30" as="alternateBounds" />
          </mxGeometry>
        </mxCell>
        <mxCell id="UyfrRTIY1BK4k6403gO7-52" value="descripcion varchar(255)  NOT NULL" style="shape=partialRectangle;overflow=hidden;connectable=0;fillColor=none;top=0;left=0;bottom=0;right=0;align=left;spacingLeft=6;labelBackgroundColor=none;strokeColor=#DDA15E;fontColor=#FEFAE0;rounded=1;" vertex="1" parent="UyfrRTIY1BK4k6403gO7-50">
          <mxGeometry x="30" width="220" height="30" as="geometry">
            <mxRectangle width="220" height="30" as="alternateBounds" />
          </mxGeometry>
        </mxCell>
        <mxCell id="UyfrRTIY1BK4k6403gO7-53" value="" style="shape=partialRectangle;collapsible=0;dropTarget=0;pointerEvents=0;fillColor=none;points=[[0,0.5],[1,0.5]];portConstraint=eastwest;top=0;left=0;right=0;bottom=0;labelBackgroundColor=none;strokeColor=#DDA15E;fontColor=#FEFAE0;rounded=1;" vertex="1" parent="UyfrRTIY1BK4k6403gO7-43">
          <mxGeometry y="120" width="250" height="30" as="geometry" />
        </mxCell>
        <mxCell id="UyfrRTIY1BK4k6403gO7-54" value="" style="shape=partialRectangle;overflow=hidden;connectable=0;fillColor=none;top=0;left=0;bottom=0;right=0;labelBackgroundColor=none;strokeColor=#DDA15E;fontColor=#FEFAE0;rounded=1;" vertex="1" parent="UyfrRTIY1BK4k6403gO7-53">
          <mxGeometry width="30" height="30" as="geometry">
            <mxRectangle width="30" height="30" as="alternateBounds" />
          </mxGeometry>
        </mxCell>
        <mxCell id="UyfrRTIY1BK4k6403gO7-55" value="duracion interval  NOT NULL" style="shape=partialRectangle;overflow=hidden;connectable=0;fillColor=none;top=0;left=0;bottom=0;right=0;align=left;spacingLeft=6;labelBackgroundColor=none;strokeColor=#DDA15E;fontColor=#FEFAE0;rounded=1;" vertex="1" parent="UyfrRTIY1BK4k6403gO7-53">
          <mxGeometry x="30" width="220" height="30" as="geometry">
            <mxRectangle width="220" height="30" as="alternateBounds" />
          </mxGeometry>
        </mxCell>
        <mxCell id="UyfrRTIY1BK4k6403gO7-56" value="" style="shape=partialRectangle;collapsible=0;dropTarget=0;pointerEvents=0;fillColor=none;points=[[0,0.5],[1,0.5]];portConstraint=eastwest;top=0;left=0;right=0;bottom=0;labelBackgroundColor=none;strokeColor=#DDA15E;fontColor=#FEFAE0;rounded=1;" vertex="1" parent="UyfrRTIY1BK4k6403gO7-43">
          <mxGeometry y="150" width="250" height="30" as="geometry" />
        </mxCell>
        <mxCell id="UyfrRTIY1BK4k6403gO7-57" value="FK1" style="shape=partialRectangle;overflow=hidden;connectable=0;fillColor=none;top=0;left=0;bottom=0;right=0;labelBackgroundColor=none;strokeColor=#DDA15E;fontColor=#FEFAE0;rounded=1;" vertex="1" parent="UyfrRTIY1BK4k6403gO7-56">
          <mxGeometry width="30" height="30" as="geometry">
            <mxRectangle width="30" height="30" as="alternateBounds" />
          </mxGeometry>
        </mxCell>
        <mxCell id="UyfrRTIY1BK4k6403gO7-58" value="bootcamp_id int  NOT NULL" style="shape=partialRectangle;overflow=hidden;connectable=0;fillColor=none;top=0;left=0;bottom=0;right=0;align=left;spacingLeft=6;labelBackgroundColor=none;strokeColor=#DDA15E;fontColor=#FEFAE0;rounded=1;" vertex="1" parent="UyfrRTIY1BK4k6403gO7-56">
          <mxGeometry x="30" width="220" height="30" as="geometry">
            <mxRectangle width="220" height="30" as="alternateBounds" />
          </mxGeometry>
        </mxCell>
        <mxCell id="UyfrRTIY1BK4k6403gO7-66" style="edgeStyle=orthogonalEdgeStyle;rounded=1;orthogonalLoop=1;jettySize=auto;html=1;exitX=1;exitY=0.5;exitDx=0;exitDy=0;entryX=0;entryY=0.5;entryDx=0;entryDy=0;endArrow=ERmany;endFill=0;labelBackgroundColor=none;fontColor=default;strokeColor=#DDA15E;" edge="1" parent="1" source="C-vyLk0tnHw3VtMMgP7b-24" target="UyfrRTIY1BK4k6403gO7-56">
          <mxGeometry relative="1" as="geometry">
            <Array as="points">
              <mxPoint x="1030" y="115" />
              <mxPoint x="1030" y="235" />
            </Array>
          </mxGeometry>
        </mxCell>
        <mxCell id="UyfrRTIY1BK4k6403gO7-69" value="profesor" style="shape=table;startSize=30;container=1;collapsible=1;childLayout=tableLayout;fixedRows=1;rowLines=0;fontStyle=1;align=center;resizeLast=1;labelBackgroundColor=none;fillColor=#BC6C25;strokeColor=#DDA15E;fontColor=#FEFAE0;rounded=1;" vertex="1" parent="1">
          <mxGeometry x="1100" y="550" width="250" height="220" as="geometry" />
        </mxCell>
        <mxCell id="UyfrRTIY1BK4k6403gO7-70" value="" style="shape=partialRectangle;collapsible=0;dropTarget=0;pointerEvents=0;fillColor=none;points=[[0,0.5],[1,0.5]];portConstraint=eastwest;top=0;left=0;right=0;bottom=1;labelBackgroundColor=none;strokeColor=#DDA15E;fontColor=#FEFAE0;rounded=1;" vertex="1" parent="UyfrRTIY1BK4k6403gO7-69">
          <mxGeometry y="30" width="250" height="30" as="geometry" />
        </mxCell>
        <mxCell id="UyfrRTIY1BK4k6403gO7-71" value="PK" style="shape=partialRectangle;overflow=hidden;connectable=0;fillColor=none;top=0;left=0;bottom=0;right=0;fontStyle=1;labelBackgroundColor=none;strokeColor=#DDA15E;fontColor=#FEFAE0;rounded=1;" vertex="1" parent="UyfrRTIY1BK4k6403gO7-70">
          <mxGeometry width="30" height="30" as="geometry">
            <mxRectangle width="30" height="30" as="alternateBounds" />
          </mxGeometry>
        </mxCell>
        <mxCell id="UyfrRTIY1BK4k6403gO7-72" value="profesor_id int NOT NULL " style="shape=partialRectangle;overflow=hidden;connectable=0;fillColor=none;top=0;left=0;bottom=0;right=0;align=left;spacingLeft=6;fontStyle=5;labelBackgroundColor=none;strokeColor=#DDA15E;fontColor=#FEFAE0;rounded=1;" vertex="1" parent="UyfrRTIY1BK4k6403gO7-70">
          <mxGeometry x="30" width="220" height="30" as="geometry">
            <mxRectangle width="220" height="30" as="alternateBounds" />
          </mxGeometry>
        </mxCell>
        <mxCell id="UyfrRTIY1BK4k6403gO7-73" value="" style="shape=partialRectangle;collapsible=0;dropTarget=0;pointerEvents=0;fillColor=none;points=[[0,0.5],[1,0.5]];portConstraint=eastwest;top=0;left=0;right=0;bottom=0;labelBackgroundColor=none;strokeColor=#DDA15E;fontColor=#FEFAE0;rounded=1;" vertex="1" parent="UyfrRTIY1BK4k6403gO7-69">
          <mxGeometry y="60" width="250" height="30" as="geometry" />
        </mxCell>
        <mxCell id="UyfrRTIY1BK4k6403gO7-74" value="" style="shape=partialRectangle;overflow=hidden;connectable=0;fillColor=none;top=0;left=0;bottom=0;right=0;labelBackgroundColor=none;strokeColor=#DDA15E;fontColor=#FEFAE0;rounded=1;" vertex="1" parent="UyfrRTIY1BK4k6403gO7-73">
          <mxGeometry width="30" height="30" as="geometry">
            <mxRectangle width="30" height="30" as="alternateBounds" />
          </mxGeometry>
        </mxCell>
        <mxCell id="UyfrRTIY1BK4k6403gO7-75" value="nombre varchar(255)  NOT NULL" style="shape=partialRectangle;overflow=hidden;connectable=0;fillColor=none;top=0;left=0;bottom=0;right=0;align=left;spacingLeft=6;labelBackgroundColor=none;strokeColor=#DDA15E;fontColor=#FEFAE0;rounded=1;" vertex="1" parent="UyfrRTIY1BK4k6403gO7-73">
          <mxGeometry x="30" width="220" height="30" as="geometry">
            <mxRectangle width="220" height="30" as="alternateBounds" />
          </mxGeometry>
        </mxCell>
        <mxCell id="UyfrRTIY1BK4k6403gO7-76" value="" style="shape=partialRectangle;collapsible=0;dropTarget=0;pointerEvents=0;fillColor=none;points=[[0,0.5],[1,0.5]];portConstraint=eastwest;top=0;left=0;right=0;bottom=0;labelBackgroundColor=none;strokeColor=#DDA15E;fontColor=#FEFAE0;rounded=1;" vertex="1" parent="UyfrRTIY1BK4k6403gO7-69">
          <mxGeometry y="90" width="250" height="30" as="geometry" />
        </mxCell>
        <mxCell id="UyfrRTIY1BK4k6403gO7-77" value="" style="shape=partialRectangle;overflow=hidden;connectable=0;fillColor=none;top=0;left=0;bottom=0;right=0;labelBackgroundColor=none;strokeColor=#DDA15E;fontColor=#FEFAE0;rounded=1;" vertex="1" parent="UyfrRTIY1BK4k6403gO7-76">
          <mxGeometry width="30" height="30" as="geometry">
            <mxRectangle width="30" height="30" as="alternateBounds" />
          </mxGeometry>
        </mxCell>
        <mxCell id="UyfrRTIY1BK4k6403gO7-78" value="apellido varchar(255) NOT NULL" style="shape=partialRectangle;overflow=hidden;connectable=0;fillColor=none;top=0;left=0;bottom=0;right=0;align=left;spacingLeft=6;labelBackgroundColor=none;strokeColor=#DDA15E;fontColor=#FEFAE0;rounded=1;" vertex="1" parent="UyfrRTIY1BK4k6403gO7-76">
          <mxGeometry x="30" width="220" height="30" as="geometry">
            <mxRectangle width="220" height="30" as="alternateBounds" />
          </mxGeometry>
        </mxCell>
        <mxCell id="UyfrRTIY1BK4k6403gO7-79" value="" style="shape=partialRectangle;collapsible=0;dropTarget=0;pointerEvents=0;fillColor=none;points=[[0,0.5],[1,0.5]];portConstraint=eastwest;top=0;left=0;right=0;bottom=0;labelBackgroundColor=none;strokeColor=#DDA15E;fontColor=#FEFAE0;rounded=1;" vertex="1" parent="UyfrRTIY1BK4k6403gO7-69">
          <mxGeometry y="120" width="250" height="30" as="geometry" />
        </mxCell>
        <mxCell id="UyfrRTIY1BK4k6403gO7-80" value="" style="shape=partialRectangle;overflow=hidden;connectable=0;fillColor=none;top=0;left=0;bottom=0;right=0;labelBackgroundColor=none;strokeColor=#DDA15E;fontColor=#FEFAE0;rounded=1;" vertex="1" parent="UyfrRTIY1BK4k6403gO7-79">
          <mxGeometry width="30" height="30" as="geometry">
            <mxRectangle width="30" height="30" as="alternateBounds" />
          </mxGeometry>
        </mxCell>
        <mxCell id="UyfrRTIY1BK4k6403gO7-81" value="email varchar(255) NOT NULL" style="shape=partialRectangle;overflow=hidden;connectable=0;fillColor=none;top=0;left=0;bottom=0;right=0;align=left;spacingLeft=6;labelBackgroundColor=none;strokeColor=#DDA15E;fontColor=#FEFAE0;rounded=1;" vertex="1" parent="UyfrRTIY1BK4k6403gO7-79">
          <mxGeometry x="30" width="220" height="30" as="geometry">
            <mxRectangle width="220" height="30" as="alternateBounds" />
          </mxGeometry>
        </mxCell>
        <mxCell id="UyfrRTIY1BK4k6403gO7-82" value="" style="shape=partialRectangle;collapsible=0;dropTarget=0;pointerEvents=0;fillColor=none;points=[[0,0.5],[1,0.5]];portConstraint=eastwest;top=0;left=0;right=0;bottom=0;labelBackgroundColor=none;strokeColor=#DDA15E;fontColor=#FEFAE0;rounded=1;" vertex="1" parent="UyfrRTIY1BK4k6403gO7-69">
          <mxGeometry y="150" width="250" height="30" as="geometry" />
        </mxCell>
        <mxCell id="UyfrRTIY1BK4k6403gO7-83" value="" style="shape=partialRectangle;overflow=hidden;connectable=0;fillColor=none;top=0;left=0;bottom=0;right=0;labelBackgroundColor=none;strokeColor=#DDA15E;fontColor=#FEFAE0;rounded=1;" vertex="1" parent="UyfrRTIY1BK4k6403gO7-82">
          <mxGeometry width="30" height="30" as="geometry">
            <mxRectangle width="30" height="30" as="alternateBounds" />
          </mxGeometry>
        </mxCell>
        <mxCell id="UyfrRTIY1BK4k6403gO7-84" value="telefono varchar(20) NOT NULL" style="shape=partialRectangle;overflow=hidden;connectable=0;fillColor=none;top=0;left=0;bottom=0;right=0;align=left;spacingLeft=6;labelBackgroundColor=none;strokeColor=#DDA15E;fontColor=#FEFAE0;rounded=1;" vertex="1" parent="UyfrRTIY1BK4k6403gO7-82">
          <mxGeometry x="30" width="220" height="30" as="geometry">
            <mxRectangle width="220" height="30" as="alternateBounds" />
          </mxGeometry>
        </mxCell>
        <mxCell id="UyfrRTIY1BK4k6403gO7-85" value="" style="shape=partialRectangle;collapsible=0;dropTarget=0;pointerEvents=0;fillColor=none;points=[[0,0.5],[1,0.5]];portConstraint=eastwest;top=0;left=0;right=0;bottom=0;labelBackgroundColor=none;strokeColor=#DDA15E;fontColor=#FEFAE0;rounded=1;" vertex="1" parent="UyfrRTIY1BK4k6403gO7-69">
          <mxGeometry y="180" width="250" height="30" as="geometry" />
        </mxCell>
        <mxCell id="UyfrRTIY1BK4k6403gO7-86" value="" style="shape=partialRectangle;overflow=hidden;connectable=0;fillColor=none;top=0;left=0;bottom=0;right=0;labelBackgroundColor=none;strokeColor=#DDA15E;fontColor=#FEFAE0;rounded=1;" vertex="1" parent="UyfrRTIY1BK4k6403gO7-85">
          <mxGeometry width="30" height="30" as="geometry">
            <mxRectangle width="30" height="30" as="alternateBounds" />
          </mxGeometry>
        </mxCell>
        <mxCell id="UyfrRTIY1BK4k6403gO7-87" value="especialidad varchar(255) NOT NULL" style="shape=partialRectangle;overflow=hidden;connectable=0;fillColor=none;top=0;left=0;bottom=0;right=0;align=left;spacingLeft=6;labelBackgroundColor=none;strokeColor=#DDA15E;fontColor=#FEFAE0;rounded=1;" vertex="1" parent="UyfrRTIY1BK4k6403gO7-85">
          <mxGeometry x="30" width="220" height="30" as="geometry">
            <mxRectangle width="220" height="30" as="alternateBounds" />
          </mxGeometry>
        </mxCell>
        <mxCell id="UyfrRTIY1BK4k6403gO7-113" value="asignacion" style="shape=table;startSize=30;container=1;collapsible=1;childLayout=tableLayout;fixedRows=1;rowLines=0;fontStyle=1;align=center;resizeLast=1;labelBackgroundColor=none;fillColor=#BC6C25;strokeColor=#DDA15E;fontColor=#FEFAE0;rounded=1;" vertex="1" parent="1">
          <mxGeometry x="1090" y="330" width="250" height="160" as="geometry" />
        </mxCell>
        <mxCell id="UyfrRTIY1BK4k6403gO7-114" value="" style="shape=partialRectangle;collapsible=0;dropTarget=0;pointerEvents=0;fillColor=none;points=[[0,0.5],[1,0.5]];portConstraint=eastwest;top=0;left=0;right=0;bottom=1;labelBackgroundColor=none;strokeColor=#DDA15E;fontColor=#FEFAE0;rounded=1;" vertex="1" parent="UyfrRTIY1BK4k6403gO7-113">
          <mxGeometry y="30" width="250" height="30" as="geometry" />
        </mxCell>
        <mxCell id="UyfrRTIY1BK4k6403gO7-115" value="PK" style="shape=partialRectangle;overflow=hidden;connectable=0;fillColor=none;top=0;left=0;bottom=0;right=0;fontStyle=1;labelBackgroundColor=none;strokeColor=#DDA15E;fontColor=#FEFAE0;rounded=1;" vertex="1" parent="UyfrRTIY1BK4k6403gO7-114">
          <mxGeometry width="30" height="30" as="geometry">
            <mxRectangle width="30" height="30" as="alternateBounds" />
          </mxGeometry>
        </mxCell>
        <mxCell id="UyfrRTIY1BK4k6403gO7-116" value="asignacion_id int NOT NULL " style="shape=partialRectangle;overflow=hidden;connectable=0;fillColor=none;top=0;left=0;bottom=0;right=0;align=left;spacingLeft=6;fontStyle=5;labelBackgroundColor=none;strokeColor=#DDA15E;fontColor=#FEFAE0;rounded=1;" vertex="1" parent="UyfrRTIY1BK4k6403gO7-114">
          <mxGeometry x="30" width="220" height="30" as="geometry">
            <mxRectangle width="220" height="30" as="alternateBounds" />
          </mxGeometry>
        </mxCell>
        <mxCell id="UyfrRTIY1BK4k6403gO7-117" value="" style="shape=partialRectangle;collapsible=0;dropTarget=0;pointerEvents=0;fillColor=none;points=[[0,0.5],[1,0.5]];portConstraint=eastwest;top=0;left=0;right=0;bottom=0;labelBackgroundColor=none;strokeColor=#DDA15E;fontColor=#FEFAE0;rounded=1;" vertex="1" parent="UyfrRTIY1BK4k6403gO7-113">
          <mxGeometry y="60" width="250" height="30" as="geometry" />
        </mxCell>
        <mxCell id="UyfrRTIY1BK4k6403gO7-118" value="FK1" style="shape=partialRectangle;overflow=hidden;connectable=0;fillColor=none;top=0;left=0;bottom=0;right=0;labelBackgroundColor=none;strokeColor=#DDA15E;fontColor=#FEFAE0;rounded=1;" vertex="1" parent="UyfrRTIY1BK4k6403gO7-117">
          <mxGeometry width="30" height="30" as="geometry">
            <mxRectangle width="30" height="30" as="alternateBounds" />
          </mxGeometry>
        </mxCell>
        <mxCell id="UyfrRTIY1BK4k6403gO7-119" value="profesor_id int NOT NULL" style="shape=partialRectangle;overflow=hidden;connectable=0;fillColor=none;top=0;left=0;bottom=0;right=0;align=left;spacingLeft=6;labelBackgroundColor=none;strokeColor=#DDA15E;fontColor=#FEFAE0;rounded=1;" vertex="1" parent="UyfrRTIY1BK4k6403gO7-117">
          <mxGeometry x="30" width="220" height="30" as="geometry">
            <mxRectangle width="220" height="30" as="alternateBounds" />
          </mxGeometry>
        </mxCell>
        <mxCell id="UyfrRTIY1BK4k6403gO7-120" value="" style="shape=partialRectangle;collapsible=0;dropTarget=0;pointerEvents=0;fillColor=none;points=[[0,0.5],[1,0.5]];portConstraint=eastwest;top=0;left=0;right=0;bottom=0;labelBackgroundColor=none;strokeColor=#DDA15E;fontColor=#FEFAE0;rounded=1;" vertex="1" parent="UyfrRTIY1BK4k6403gO7-113">
          <mxGeometry y="90" width="250" height="30" as="geometry" />
        </mxCell>
        <mxCell id="UyfrRTIY1BK4k6403gO7-121" value="FK2" style="shape=partialRectangle;overflow=hidden;connectable=0;fillColor=none;top=0;left=0;bottom=0;right=0;labelBackgroundColor=none;strokeColor=#DDA15E;fontColor=#FEFAE0;rounded=1;" vertex="1" parent="UyfrRTIY1BK4k6403gO7-120">
          <mxGeometry width="30" height="30" as="geometry">
            <mxRectangle width="30" height="30" as="alternateBounds" />
          </mxGeometry>
        </mxCell>
        <mxCell id="UyfrRTIY1BK4k6403gO7-122" value="modulo_id int NOT NULL" style="shape=partialRectangle;overflow=hidden;connectable=0;fillColor=none;top=0;left=0;bottom=0;right=0;align=left;spacingLeft=6;labelBackgroundColor=none;strokeColor=#DDA15E;fontColor=#FEFAE0;rounded=1;" vertex="1" parent="UyfrRTIY1BK4k6403gO7-120">
          <mxGeometry x="30" width="220" height="30" as="geometry">
            <mxRectangle width="220" height="30" as="alternateBounds" />
          </mxGeometry>
        </mxCell>
        <mxCell id="UyfrRTIY1BK4k6403gO7-123" value="" style="shape=partialRectangle;collapsible=0;dropTarget=0;pointerEvents=0;fillColor=none;points=[[0,0.5],[1,0.5]];portConstraint=eastwest;top=0;left=0;right=0;bottom=0;labelBackgroundColor=none;strokeColor=#DDA15E;fontColor=#FEFAE0;rounded=1;" vertex="1" parent="UyfrRTIY1BK4k6403gO7-113">
          <mxGeometry y="120" width="250" height="30" as="geometry" />
        </mxCell>
        <mxCell id="UyfrRTIY1BK4k6403gO7-124" value="" style="shape=partialRectangle;overflow=hidden;connectable=0;fillColor=none;top=0;left=0;bottom=0;right=0;labelBackgroundColor=none;strokeColor=#DDA15E;fontColor=#FEFAE0;rounded=1;" vertex="1" parent="UyfrRTIY1BK4k6403gO7-123">
          <mxGeometry width="30" height="30" as="geometry">
            <mxRectangle width="30" height="30" as="alternateBounds" />
          </mxGeometry>
        </mxCell>
        <mxCell id="UyfrRTIY1BK4k6403gO7-125" value="fecha_asignacion date NOT NULL" style="shape=partialRectangle;overflow=hidden;connectable=0;fillColor=none;top=0;left=0;bottom=0;right=0;align=left;spacingLeft=6;labelBackgroundColor=none;strokeColor=#DDA15E;fontColor=#FEFAE0;rounded=1;" vertex="1" parent="UyfrRTIY1BK4k6403gO7-123">
          <mxGeometry x="30" width="220" height="30" as="geometry">
            <mxRectangle width="220" height="30" as="alternateBounds" />
          </mxGeometry>
        </mxCell>
        <mxCell id="UyfrRTIY1BK4k6403gO7-129" style="edgeStyle=orthogonalEdgeStyle;rounded=1;orthogonalLoop=1;jettySize=auto;html=1;exitX=0;exitY=0.5;exitDx=0;exitDy=0;entryX=1;entryY=0.5;entryDx=0;entryDy=0;endArrow=ERmany;endFill=0;labelBackgroundColor=none;fontColor=default;strokeColor=#DDA15E;" edge="1" parent="1" source="UyfrRTIY1BK4k6403gO7-70" target="UyfrRTIY1BK4k6403gO7-117">
          <mxGeometry relative="1" as="geometry">
            <Array as="points">
              <mxPoint x="1080" y="595" />
              <mxPoint x="1080" y="520" />
              <mxPoint x="1360" y="520" />
              <mxPoint x="1360" y="405" />
            </Array>
          </mxGeometry>
        </mxCell>
        <mxCell id="UyfrRTIY1BK4k6403gO7-130" style="edgeStyle=orthogonalEdgeStyle;rounded=1;orthogonalLoop=1;jettySize=auto;html=1;exitX=1;exitY=0.5;exitDx=0;exitDy=0;entryX=0;entryY=0.5;entryDx=0;entryDy=0;endArrow=ERmany;endFill=0;labelBackgroundColor=none;fontColor=default;strokeColor=#DDA15E;" edge="1" parent="1" source="UyfrRTIY1BK4k6403gO7-117" target="UyfrRTIY1BK4k6403gO7-70">
          <mxGeometry relative="1" as="geometry">
            <Array as="points">
              <mxPoint x="1360" y="405" />
              <mxPoint x="1360" y="520" />
              <mxPoint x="1080" y="520" />
              <mxPoint x="1080" y="595" />
            </Array>
          </mxGeometry>
        </mxCell>
        <mxCell id="UyfrRTIY1BK4k6403gO7-131" style="edgeStyle=orthogonalEdgeStyle;rounded=1;orthogonalLoop=1;jettySize=auto;html=1;exitX=0;exitY=0.5;exitDx=0;exitDy=0;entryX=1;entryY=0.5;entryDx=0;entryDy=0;endArrow=ERmany;endFill=0;labelBackgroundColor=none;fontColor=default;strokeColor=#DDA15E;" edge="1" parent="1" source="UyfrRTIY1BK4k6403gO7-120" target="UyfrRTIY1BK4k6403gO7-44">
          <mxGeometry relative="1" as="geometry" />
        </mxCell>
        <mxCell id="UyfrRTIY1BK4k6403gO7-132" style="edgeStyle=orthogonalEdgeStyle;rounded=1;orthogonalLoop=1;jettySize=auto;html=1;exitX=1;exitY=0.5;exitDx=0;exitDy=0;entryX=0;entryY=0.5;entryDx=0;entryDy=0;endArrow=ERmany;endFill=0;labelBackgroundColor=none;fontColor=default;strokeColor=#DDA15E;" edge="1" parent="1" source="UyfrRTIY1BK4k6403gO7-44" target="UyfrRTIY1BK4k6403gO7-120">
          <mxGeometry relative="1" as="geometry" />
        </mxCell>
        <mxCell id="UyfrRTIY1BK4k6403gO7-133" value="oferta" style="shape=table;startSize=30;container=1;collapsible=1;childLayout=tableLayout;fixedRows=1;rowLines=0;fontStyle=1;align=center;resizeLast=1;labelBackgroundColor=none;fillColor=#BC6C25;strokeColor=#DDA15E;fontColor=#FEFAE0;rounded=1;" vertex="1" parent="1">
          <mxGeometry x="700" y="760" width="250" height="190" as="geometry" />
        </mxCell>
        <mxCell id="UyfrRTIY1BK4k6403gO7-134" value="" style="shape=partialRectangle;collapsible=0;dropTarget=0;pointerEvents=0;fillColor=none;points=[[0,0.5],[1,0.5]];portConstraint=eastwest;top=0;left=0;right=0;bottom=1;labelBackgroundColor=none;strokeColor=#DDA15E;fontColor=#FEFAE0;rounded=1;" vertex="1" parent="UyfrRTIY1BK4k6403gO7-133">
          <mxGeometry y="30" width="250" height="30" as="geometry" />
        </mxCell>
        <mxCell id="UyfrRTIY1BK4k6403gO7-135" value="PK" style="shape=partialRectangle;overflow=hidden;connectable=0;fillColor=none;top=0;left=0;bottom=0;right=0;fontStyle=1;labelBackgroundColor=none;strokeColor=#DDA15E;fontColor=#FEFAE0;rounded=1;" vertex="1" parent="UyfrRTIY1BK4k6403gO7-134">
          <mxGeometry width="30" height="30" as="geometry">
            <mxRectangle width="30" height="30" as="alternateBounds" />
          </mxGeometry>
        </mxCell>
        <mxCell id="UyfrRTIY1BK4k6403gO7-136" value="oferta_id int NOT NULL " style="shape=partialRectangle;overflow=hidden;connectable=0;fillColor=none;top=0;left=0;bottom=0;right=0;align=left;spacingLeft=6;fontStyle=5;labelBackgroundColor=none;strokeColor=#DDA15E;fontColor=#FEFAE0;rounded=1;" vertex="1" parent="UyfrRTIY1BK4k6403gO7-134">
          <mxGeometry x="30" width="220" height="30" as="geometry">
            <mxRectangle width="220" height="30" as="alternateBounds" />
          </mxGeometry>
        </mxCell>
        <mxCell id="UyfrRTIY1BK4k6403gO7-137" value="" style="shape=partialRectangle;collapsible=0;dropTarget=0;pointerEvents=0;fillColor=none;points=[[0,0.5],[1,0.5]];portConstraint=eastwest;top=0;left=0;right=0;bottom=0;labelBackgroundColor=none;strokeColor=#DDA15E;fontColor=#FEFAE0;rounded=1;" vertex="1" parent="UyfrRTIY1BK4k6403gO7-133">
          <mxGeometry y="60" width="250" height="30" as="geometry" />
        </mxCell>
        <mxCell id="UyfrRTIY1BK4k6403gO7-138" value="" style="shape=partialRectangle;overflow=hidden;connectable=0;fillColor=none;top=0;left=0;bottom=0;right=0;labelBackgroundColor=none;strokeColor=#DDA15E;fontColor=#FEFAE0;rounded=1;" vertex="1" parent="UyfrRTIY1BK4k6403gO7-137">
          <mxGeometry width="30" height="30" as="geometry">
            <mxRectangle width="30" height="30" as="alternateBounds" />
          </mxGeometry>
        </mxCell>
        <mxCell id="UyfrRTIY1BK4k6403gO7-139" value="descripcion varchar(255)  NOT NULL" style="shape=partialRectangle;overflow=hidden;connectable=0;fillColor=none;top=0;left=0;bottom=0;right=0;align=left;spacingLeft=6;labelBackgroundColor=none;strokeColor=#DDA15E;fontColor=#FEFAE0;rounded=1;" vertex="1" parent="UyfrRTIY1BK4k6403gO7-137">
          <mxGeometry x="30" width="220" height="30" as="geometry">
            <mxRectangle width="220" height="30" as="alternateBounds" />
          </mxGeometry>
        </mxCell>
        <mxCell id="UyfrRTIY1BK4k6403gO7-140" value="" style="shape=partialRectangle;collapsible=0;dropTarget=0;pointerEvents=0;fillColor=none;points=[[0,0.5],[1,0.5]];portConstraint=eastwest;top=0;left=0;right=0;bottom=0;labelBackgroundColor=none;strokeColor=#DDA15E;fontColor=#FEFAE0;rounded=1;" vertex="1" parent="UyfrRTIY1BK4k6403gO7-133">
          <mxGeometry y="90" width="250" height="30" as="geometry" />
        </mxCell>
        <mxCell id="UyfrRTIY1BK4k6403gO7-141" value="" style="shape=partialRectangle;overflow=hidden;connectable=0;fillColor=none;top=0;left=0;bottom=0;right=0;labelBackgroundColor=none;strokeColor=#DDA15E;fontColor=#FEFAE0;rounded=1;" vertex="1" parent="UyfrRTIY1BK4k6403gO7-140">
          <mxGeometry width="30" height="30" as="geometry">
            <mxRectangle width="30" height="30" as="alternateBounds" />
          </mxGeometry>
        </mxCell>
        <mxCell id="UyfrRTIY1BK4k6403gO7-142" value="descuento int NOT NULL" style="shape=partialRectangle;overflow=hidden;connectable=0;fillColor=none;top=0;left=0;bottom=0;right=0;align=left;spacingLeft=6;labelBackgroundColor=none;strokeColor=#DDA15E;fontColor=#FEFAE0;rounded=1;" vertex="1" parent="UyfrRTIY1BK4k6403gO7-140">
          <mxGeometry x="30" width="220" height="30" as="geometry">
            <mxRectangle width="220" height="30" as="alternateBounds" />
          </mxGeometry>
        </mxCell>
        <mxCell id="UyfrRTIY1BK4k6403gO7-143" value="" style="shape=partialRectangle;collapsible=0;dropTarget=0;pointerEvents=0;fillColor=none;points=[[0,0.5],[1,0.5]];portConstraint=eastwest;top=0;left=0;right=0;bottom=0;labelBackgroundColor=none;strokeColor=#DDA15E;fontColor=#FEFAE0;rounded=1;" vertex="1" parent="UyfrRTIY1BK4k6403gO7-133">
          <mxGeometry y="120" width="250" height="30" as="geometry" />
        </mxCell>
        <mxCell id="UyfrRTIY1BK4k6403gO7-144" value="" style="shape=partialRectangle;overflow=hidden;connectable=0;fillColor=none;top=0;left=0;bottom=0;right=0;labelBackgroundColor=none;strokeColor=#DDA15E;fontColor=#FEFAE0;rounded=1;" vertex="1" parent="UyfrRTIY1BK4k6403gO7-143">
          <mxGeometry width="30" height="30" as="geometry">
            <mxRectangle width="30" height="30" as="alternateBounds" />
          </mxGeometry>
        </mxCell>
        <mxCell id="UyfrRTIY1BK4k6403gO7-145" value="fecha_inicio date  NOT NULL" style="shape=partialRectangle;overflow=hidden;connectable=0;fillColor=none;top=0;left=0;bottom=0;right=0;align=left;spacingLeft=6;labelBackgroundColor=none;strokeColor=#DDA15E;fontColor=#FEFAE0;rounded=1;" vertex="1" parent="UyfrRTIY1BK4k6403gO7-143">
          <mxGeometry x="30" width="220" height="30" as="geometry">
            <mxRectangle width="220" height="30" as="alternateBounds" />
          </mxGeometry>
        </mxCell>
        <mxCell id="UyfrRTIY1BK4k6403gO7-146" value="" style="shape=partialRectangle;collapsible=0;dropTarget=0;pointerEvents=0;fillColor=none;points=[[0,0.5],[1,0.5]];portConstraint=eastwest;top=0;left=0;right=0;bottom=0;labelBackgroundColor=none;strokeColor=#DDA15E;fontColor=#FEFAE0;rounded=1;" vertex="1" parent="UyfrRTIY1BK4k6403gO7-133">
          <mxGeometry y="150" width="250" height="30" as="geometry" />
        </mxCell>
        <mxCell id="UyfrRTIY1BK4k6403gO7-147" value="" style="shape=partialRectangle;overflow=hidden;connectable=0;fillColor=none;top=0;left=0;bottom=0;right=0;labelBackgroundColor=none;strokeColor=#DDA15E;fontColor=#FEFAE0;rounded=1;" vertex="1" parent="UyfrRTIY1BK4k6403gO7-146">
          <mxGeometry width="30" height="30" as="geometry">
            <mxRectangle width="30" height="30" as="alternateBounds" />
          </mxGeometry>
        </mxCell>
        <mxCell id="UyfrRTIY1BK4k6403gO7-148" value="fecha_fin date  NOT NULL" style="shape=partialRectangle;overflow=hidden;connectable=0;fillColor=none;top=0;left=0;bottom=0;right=0;align=left;spacingLeft=6;labelBackgroundColor=none;strokeColor=#DDA15E;fontColor=#FEFAE0;rounded=1;" vertex="1" parent="UyfrRTIY1BK4k6403gO7-146">
          <mxGeometry x="30" width="220" height="30" as="geometry">
            <mxRectangle width="220" height="30" as="alternateBounds" />
          </mxGeometry>
        </mxCell>
        <mxCell id="UyfrRTIY1BK4k6403gO7-149" value="alumno_oferta" style="shape=table;startSize=30;container=1;collapsible=1;childLayout=tableLayout;fixedRows=1;rowLines=0;fontStyle=1;align=center;resizeLast=1;labelBackgroundColor=none;fillColor=#BC6C25;strokeColor=#DDA15E;fontColor=#FEFAE0;rounded=1;" vertex="1" parent="1">
          <mxGeometry x="700" y="570" width="250" height="160" as="geometry" />
        </mxCell>
        <mxCell id="UyfrRTIY1BK4k6403gO7-150" value="" style="shape=partialRectangle;collapsible=0;dropTarget=0;pointerEvents=0;fillColor=none;points=[[0,0.5],[1,0.5]];portConstraint=eastwest;top=0;left=0;right=0;bottom=1;labelBackgroundColor=none;strokeColor=#DDA15E;fontColor=#FEFAE0;rounded=1;" vertex="1" parent="UyfrRTIY1BK4k6403gO7-149">
          <mxGeometry y="30" width="250" height="30" as="geometry" />
        </mxCell>
        <mxCell id="UyfrRTIY1BK4k6403gO7-151" value="PK" style="shape=partialRectangle;overflow=hidden;connectable=0;fillColor=none;top=0;left=0;bottom=0;right=0;fontStyle=1;labelBackgroundColor=none;strokeColor=#DDA15E;fontColor=#FEFAE0;rounded=1;" vertex="1" parent="UyfrRTIY1BK4k6403gO7-150">
          <mxGeometry width="30" height="30" as="geometry">
            <mxRectangle width="30" height="30" as="alternateBounds" />
          </mxGeometry>
        </mxCell>
        <mxCell id="UyfrRTIY1BK4k6403gO7-152" value="alumno_oferta_id int NOT NULL " style="shape=partialRectangle;overflow=hidden;connectable=0;fillColor=none;top=0;left=0;bottom=0;right=0;align=left;spacingLeft=6;fontStyle=5;labelBackgroundColor=none;strokeColor=#DDA15E;fontColor=#FEFAE0;rounded=1;" vertex="1" parent="UyfrRTIY1BK4k6403gO7-150">
          <mxGeometry x="30" width="220" height="30" as="geometry">
            <mxRectangle width="220" height="30" as="alternateBounds" />
          </mxGeometry>
        </mxCell>
        <mxCell id="UyfrRTIY1BK4k6403gO7-153" value="" style="shape=partialRectangle;collapsible=0;dropTarget=0;pointerEvents=0;fillColor=none;points=[[0,0.5],[1,0.5]];portConstraint=eastwest;top=0;left=0;right=0;bottom=0;labelBackgroundColor=none;strokeColor=#DDA15E;fontColor=#FEFAE0;rounded=1;" vertex="1" parent="UyfrRTIY1BK4k6403gO7-149">
          <mxGeometry y="60" width="250" height="30" as="geometry" />
        </mxCell>
        <mxCell id="UyfrRTIY1BK4k6403gO7-154" value="FK1" style="shape=partialRectangle;overflow=hidden;connectable=0;fillColor=none;top=0;left=0;bottom=0;right=0;labelBackgroundColor=none;strokeColor=#DDA15E;fontColor=#FEFAE0;rounded=1;" vertex="1" parent="UyfrRTIY1BK4k6403gO7-153">
          <mxGeometry width="30" height="30" as="geometry">
            <mxRectangle width="30" height="30" as="alternateBounds" />
          </mxGeometry>
        </mxCell>
        <mxCell id="UyfrRTIY1BK4k6403gO7-155" value="alumno_id int NOT NULL" style="shape=partialRectangle;overflow=hidden;connectable=0;fillColor=none;top=0;left=0;bottom=0;right=0;align=left;spacingLeft=6;labelBackgroundColor=none;strokeColor=#DDA15E;fontColor=#FEFAE0;rounded=1;" vertex="1" parent="UyfrRTIY1BK4k6403gO7-153">
          <mxGeometry x="30" width="220" height="30" as="geometry">
            <mxRectangle width="220" height="30" as="alternateBounds" />
          </mxGeometry>
        </mxCell>
        <mxCell id="UyfrRTIY1BK4k6403gO7-156" value="" style="shape=partialRectangle;collapsible=0;dropTarget=0;pointerEvents=0;fillColor=none;points=[[0,0.5],[1,0.5]];portConstraint=eastwest;top=0;left=0;right=0;bottom=0;labelBackgroundColor=none;strokeColor=#DDA15E;fontColor=#FEFAE0;rounded=1;" vertex="1" parent="UyfrRTIY1BK4k6403gO7-149">
          <mxGeometry y="90" width="250" height="30" as="geometry" />
        </mxCell>
        <mxCell id="UyfrRTIY1BK4k6403gO7-157" value="FK2" style="shape=partialRectangle;overflow=hidden;connectable=0;fillColor=none;top=0;left=0;bottom=0;right=0;labelBackgroundColor=none;strokeColor=#DDA15E;fontColor=#FEFAE0;rounded=1;" vertex="1" parent="UyfrRTIY1BK4k6403gO7-156">
          <mxGeometry width="30" height="30" as="geometry">
            <mxRectangle width="30" height="30" as="alternateBounds" />
          </mxGeometry>
        </mxCell>
        <mxCell id="UyfrRTIY1BK4k6403gO7-158" value="oferta_id int NOT NULL" style="shape=partialRectangle;overflow=hidden;connectable=0;fillColor=none;top=0;left=0;bottom=0;right=0;align=left;spacingLeft=6;labelBackgroundColor=none;strokeColor=#DDA15E;fontColor=#FEFAE0;rounded=1;" vertex="1" parent="UyfrRTIY1BK4k6403gO7-156">
          <mxGeometry x="30" width="220" height="30" as="geometry">
            <mxRectangle width="220" height="30" as="alternateBounds" />
          </mxGeometry>
        </mxCell>
        <mxCell id="UyfrRTIY1BK4k6403gO7-165" value="" style="shape=partialRectangle;collapsible=0;dropTarget=0;pointerEvents=0;fillColor=none;points=[[0,0.5],[1,0.5]];portConstraint=eastwest;top=0;left=0;right=0;bottom=0;labelBackgroundColor=none;strokeColor=#DDA15E;fontColor=#FEFAE0;rounded=1;" vertex="1" parent="UyfrRTIY1BK4k6403gO7-149">
          <mxGeometry y="120" width="250" height="30" as="geometry" />
        </mxCell>
        <mxCell id="UyfrRTIY1BK4k6403gO7-166" value="" style="shape=partialRectangle;overflow=hidden;connectable=0;fillColor=none;top=0;left=0;bottom=0;right=0;labelBackgroundColor=none;strokeColor=#DDA15E;fontColor=#FEFAE0;rounded=1;" vertex="1" parent="UyfrRTIY1BK4k6403gO7-165">
          <mxGeometry width="30" height="30" as="geometry">
            <mxRectangle width="30" height="30" as="alternateBounds" />
          </mxGeometry>
        </mxCell>
        <mxCell id="UyfrRTIY1BK4k6403gO7-167" value="bootcamp_id int NOT NULL" style="shape=partialRectangle;overflow=hidden;connectable=0;fillColor=none;top=0;left=0;bottom=0;right=0;align=left;spacingLeft=6;labelBackgroundColor=none;strokeColor=#DDA15E;fontColor=#FEFAE0;rounded=1;" vertex="1" parent="UyfrRTIY1BK4k6403gO7-165">
          <mxGeometry x="30" width="220" height="30" as="geometry">
            <mxRectangle width="220" height="30" as="alternateBounds" />
          </mxGeometry>
        </mxCell>
        <mxCell id="UyfrRTIY1BK4k6403gO7-169" style="edgeStyle=orthogonalEdgeStyle;rounded=1;orthogonalLoop=1;jettySize=auto;html=1;exitX=0;exitY=0.5;exitDx=0;exitDy=0;entryX=0;entryY=0.5;entryDx=0;entryDy=0;endArrow=ERmany;endFill=0;labelBackgroundColor=none;fontColor=default;strokeColor=#DDA15E;" edge="1" parent="1" source="UyfrRTIY1BK4k6403gO7-134" target="UyfrRTIY1BK4k6403gO7-156">
          <mxGeometry relative="1" as="geometry" />
        </mxCell>
        <mxCell id="UyfrRTIY1BK4k6403gO7-172" style="edgeStyle=orthogonalEdgeStyle;rounded=1;orthogonalLoop=1;jettySize=auto;html=1;exitX=1;exitY=0.5;exitDx=0;exitDy=0;entryX=1;entryY=0.5;entryDx=0;entryDy=0;endArrow=ERmany;endFill=0;labelBackgroundColor=none;fontColor=default;strokeColor=#DDA15E;" edge="1" parent="1" source="C-vyLk0tnHw3VtMMgP7b-24" target="UyfrRTIY1BK4k6403gO7-165">
          <mxGeometry relative="1" as="geometry">
            <Array as="points">
              <mxPoint x="1000" y="115" />
              <mxPoint x="1000" y="705" />
            </Array>
          </mxGeometry>
        </mxCell>
        <mxCell id="UyfrRTIY1BK4k6403gO7-173" style="edgeStyle=orthogonalEdgeStyle;rounded=1;orthogonalLoop=1;jettySize=auto;html=1;exitX=1;exitY=0.5;exitDx=0;exitDy=0;entryX=0;entryY=0.5;entryDx=0;entryDy=0;endArrow=ERmany;endFill=0;labelBackgroundColor=none;fontColor=default;strokeColor=#DDA15E;" edge="1" parent="1" source="C-vyLk0tnHw3VtMMgP7b-14" target="UyfrRTIY1BK4k6403gO7-153">
          <mxGeometry relative="1" as="geometry" />
        </mxCell>
        <mxCell id="UyfrRTIY1BK4k6403gO7-174" style="edgeStyle=orthogonalEdgeStyle;rounded=1;orthogonalLoop=1;jettySize=auto;html=1;exitX=0;exitY=0.5;exitDx=0;exitDy=0;entryX=1;entryY=0.5;entryDx=0;entryDy=0;endArrow=ERmany;endFill=0;labelBackgroundColor=none;fontColor=default;strokeColor=#DDA15E;" edge="1" parent="1" source="C-vyLk0tnHw3VtMMgP7b-24" target="C-vyLk0tnHw3VtMMgP7b-9">
          <mxGeometry relative="1" as="geometry">
            <Array as="points">
              <mxPoint x="680" y="115" />
              <mxPoint x="680" y="320" />
              <mxPoint x="960" y="320" />
              <mxPoint x="960" y="465" />
            </Array>
          </mxGeometry>
        </mxCell>
        <mxCell id="UyfrRTIY1BK4k6403gO7-175" style="edgeStyle=orthogonalEdgeStyle;rounded=1;orthogonalLoop=1;jettySize=auto;html=1;exitX=1;exitY=0.5;exitDx=0;exitDy=0;entryX=0;entryY=0.5;entryDx=0;entryDy=0;endArrow=ERmany;endFill=0;labelBackgroundColor=none;fontColor=default;strokeColor=#DDA15E;" edge="1" parent="1" source="C-vyLk0tnHw3VtMMgP7b-9" target="C-vyLk0tnHw3VtMMgP7b-24">
          <mxGeometry relative="1" as="geometry">
            <Array as="points">
              <mxPoint x="960" y="465" />
              <mxPoint x="960" y="320" />
              <mxPoint x="680" y="320" />
              <mxPoint x="680" y="115" />
            </Array>
          </mxGeometry>
        </mxCell>
        <mxCell id="UyfrRTIY1BK4k6403gO7-176" value="asistencia" style="shape=table;startSize=30;container=1;collapsible=1;childLayout=tableLayout;fixedRows=1;rowLines=0;fontStyle=1;align=center;resizeLast=1;labelBackgroundColor=none;fillColor=#BC6C25;strokeColor=#DDA15E;fontColor=#FEFAE0;rounded=1;" vertex="1" parent="1">
          <mxGeometry x="330" y="140" width="250" height="190" as="geometry" />
        </mxCell>
        <mxCell id="UyfrRTIY1BK4k6403gO7-177" value="" style="shape=partialRectangle;collapsible=0;dropTarget=0;pointerEvents=0;fillColor=none;points=[[0,0.5],[1,0.5]];portConstraint=eastwest;top=0;left=0;right=0;bottom=1;labelBackgroundColor=none;strokeColor=#DDA15E;fontColor=#FEFAE0;rounded=1;" vertex="1" parent="UyfrRTIY1BK4k6403gO7-176">
          <mxGeometry y="30" width="250" height="30" as="geometry" />
        </mxCell>
        <mxCell id="UyfrRTIY1BK4k6403gO7-178" value="PK" style="shape=partialRectangle;overflow=hidden;connectable=0;fillColor=none;top=0;left=0;bottom=0;right=0;fontStyle=1;labelBackgroundColor=none;strokeColor=#DDA15E;fontColor=#FEFAE0;rounded=1;" vertex="1" parent="UyfrRTIY1BK4k6403gO7-177">
          <mxGeometry width="30" height="30" as="geometry">
            <mxRectangle width="30" height="30" as="alternateBounds" />
          </mxGeometry>
        </mxCell>
        <mxCell id="UyfrRTIY1BK4k6403gO7-179" value="asistencia_id int NOT NULL " style="shape=partialRectangle;overflow=hidden;connectable=0;fillColor=none;top=0;left=0;bottom=0;right=0;align=left;spacingLeft=6;fontStyle=5;labelBackgroundColor=none;strokeColor=#DDA15E;fontColor=#FEFAE0;rounded=1;" vertex="1" parent="UyfrRTIY1BK4k6403gO7-177">
          <mxGeometry x="30" width="220" height="30" as="geometry">
            <mxRectangle width="220" height="30" as="alternateBounds" />
          </mxGeometry>
        </mxCell>
        <mxCell id="UyfrRTIY1BK4k6403gO7-180" value="" style="shape=partialRectangle;collapsible=0;dropTarget=0;pointerEvents=0;fillColor=none;points=[[0,0.5],[1,0.5]];portConstraint=eastwest;top=0;left=0;right=0;bottom=0;labelBackgroundColor=none;strokeColor=#DDA15E;fontColor=#FEFAE0;rounded=1;" vertex="1" parent="UyfrRTIY1BK4k6403gO7-176">
          <mxGeometry y="60" width="250" height="30" as="geometry" />
        </mxCell>
        <mxCell id="UyfrRTIY1BK4k6403gO7-181" value="FK1" style="shape=partialRectangle;overflow=hidden;connectable=0;fillColor=none;top=0;left=0;bottom=0;right=0;labelBackgroundColor=none;strokeColor=#DDA15E;fontColor=#FEFAE0;rounded=1;" vertex="1" parent="UyfrRTIY1BK4k6403gO7-180">
          <mxGeometry width="30" height="30" as="geometry">
            <mxRectangle width="30" height="30" as="alternateBounds" />
          </mxGeometry>
        </mxCell>
        <mxCell id="UyfrRTIY1BK4k6403gO7-182" value="alumno_id int  NOT NULL" style="shape=partialRectangle;overflow=hidden;connectable=0;fillColor=none;top=0;left=0;bottom=0;right=0;align=left;spacingLeft=6;labelBackgroundColor=none;strokeColor=#DDA15E;fontColor=#FEFAE0;rounded=1;" vertex="1" parent="UyfrRTIY1BK4k6403gO7-180">
          <mxGeometry x="30" width="220" height="30" as="geometry">
            <mxRectangle width="220" height="30" as="alternateBounds" />
          </mxGeometry>
        </mxCell>
        <mxCell id="UyfrRTIY1BK4k6403gO7-183" value="" style="shape=partialRectangle;collapsible=0;dropTarget=0;pointerEvents=0;fillColor=none;points=[[0,0.5],[1,0.5]];portConstraint=eastwest;top=0;left=0;right=0;bottom=0;labelBackgroundColor=none;strokeColor=#DDA15E;fontColor=#FEFAE0;rounded=1;" vertex="1" parent="UyfrRTIY1BK4k6403gO7-176">
          <mxGeometry y="90" width="250" height="30" as="geometry" />
        </mxCell>
        <mxCell id="UyfrRTIY1BK4k6403gO7-184" value="FK2" style="shape=partialRectangle;overflow=hidden;connectable=0;fillColor=none;top=0;left=0;bottom=0;right=0;labelBackgroundColor=none;strokeColor=#DDA15E;fontColor=#FEFAE0;rounded=1;" vertex="1" parent="UyfrRTIY1BK4k6403gO7-183">
          <mxGeometry width="30" height="30" as="geometry">
            <mxRectangle width="30" height="30" as="alternateBounds" />
          </mxGeometry>
        </mxCell>
        <mxCell id="UyfrRTIY1BK4k6403gO7-185" value="modulo_id NOT NULL" style="shape=partialRectangle;overflow=hidden;connectable=0;fillColor=none;top=0;left=0;bottom=0;right=0;align=left;spacingLeft=6;labelBackgroundColor=none;strokeColor=#DDA15E;fontColor=#FEFAE0;rounded=1;" vertex="1" parent="UyfrRTIY1BK4k6403gO7-183">
          <mxGeometry x="30" width="220" height="30" as="geometry">
            <mxRectangle width="220" height="30" as="alternateBounds" />
          </mxGeometry>
        </mxCell>
        <mxCell id="UyfrRTIY1BK4k6403gO7-186" value="" style="shape=partialRectangle;collapsible=0;dropTarget=0;pointerEvents=0;fillColor=none;points=[[0,0.5],[1,0.5]];portConstraint=eastwest;top=0;left=0;right=0;bottom=0;labelBackgroundColor=none;strokeColor=#DDA15E;fontColor=#FEFAE0;rounded=1;" vertex="1" parent="UyfrRTIY1BK4k6403gO7-176">
          <mxGeometry y="120" width="250" height="30" as="geometry" />
        </mxCell>
        <mxCell id="UyfrRTIY1BK4k6403gO7-187" value="" style="shape=partialRectangle;overflow=hidden;connectable=0;fillColor=none;top=0;left=0;bottom=0;right=0;labelBackgroundColor=none;strokeColor=#DDA15E;fontColor=#FEFAE0;rounded=1;" vertex="1" parent="UyfrRTIY1BK4k6403gO7-186">
          <mxGeometry width="30" height="30" as="geometry">
            <mxRectangle width="30" height="30" as="alternateBounds" />
          </mxGeometry>
        </mxCell>
        <mxCell id="UyfrRTIY1BK4k6403gO7-188" value="fecha_asistencia date  NOT NULL" style="shape=partialRectangle;overflow=hidden;connectable=0;fillColor=none;top=0;left=0;bottom=0;right=0;align=left;spacingLeft=6;labelBackgroundColor=none;strokeColor=#DDA15E;fontColor=#FEFAE0;rounded=1;" vertex="1" parent="UyfrRTIY1BK4k6403gO7-186">
          <mxGeometry x="30" width="220" height="30" as="geometry">
            <mxRectangle width="220" height="30" as="alternateBounds" />
          </mxGeometry>
        </mxCell>
        <mxCell id="UyfrRTIY1BK4k6403gO7-189" value="" style="shape=partialRectangle;collapsible=0;dropTarget=0;pointerEvents=0;fillColor=none;points=[[0,0.5],[1,0.5]];portConstraint=eastwest;top=0;left=0;right=0;bottom=0;labelBackgroundColor=none;strokeColor=#DDA15E;fontColor=#FEFAE0;rounded=1;" vertex="1" parent="UyfrRTIY1BK4k6403gO7-176">
          <mxGeometry y="150" width="250" height="30" as="geometry" />
        </mxCell>
        <mxCell id="UyfrRTIY1BK4k6403gO7-190" value="" style="shape=partialRectangle;overflow=hidden;connectable=0;fillColor=none;top=0;left=0;bottom=0;right=0;labelBackgroundColor=none;strokeColor=#DDA15E;fontColor=#FEFAE0;rounded=1;" vertex="1" parent="UyfrRTIY1BK4k6403gO7-189">
          <mxGeometry width="30" height="30" as="geometry">
            <mxRectangle width="30" height="30" as="alternateBounds" />
          </mxGeometry>
        </mxCell>
        <mxCell id="UyfrRTIY1BK4k6403gO7-191" value="estado  NOT NULL" style="shape=partialRectangle;overflow=hidden;connectable=0;fillColor=none;top=0;left=0;bottom=0;right=0;align=left;spacingLeft=6;labelBackgroundColor=none;strokeColor=#DDA15E;fontColor=#FEFAE0;rounded=1;" vertex="1" parent="UyfrRTIY1BK4k6403gO7-189">
          <mxGeometry x="30" width="220" height="30" as="geometry">
            <mxRectangle width="220" height="30" as="alternateBounds" />
          </mxGeometry>
        </mxCell>
        <mxCell id="UyfrRTIY1BK4k6403gO7-192" style="edgeStyle=orthogonalEdgeStyle;rounded=1;orthogonalLoop=1;jettySize=auto;html=1;exitX=1;exitY=0.5;exitDx=0;exitDy=0;entryX=0;entryY=0.5;entryDx=0;entryDy=0;endArrow=ERmany;endFill=0;labelBackgroundColor=none;fontColor=default;strokeColor=#DDA15E;" edge="1" parent="1" source="UyfrRTIY1BK4k6403gO7-180" target="C-vyLk0tnHw3VtMMgP7b-6">
          <mxGeometry relative="1" as="geometry">
            <Array as="points">
              <mxPoint x="630" y="215" />
              <mxPoint x="630" y="435" />
            </Array>
          </mxGeometry>
        </mxCell>
        <mxCell id="UyfrRTIY1BK4k6403gO7-193" style="edgeStyle=orthogonalEdgeStyle;rounded=1;orthogonalLoop=1;jettySize=auto;html=1;exitX=0;exitY=0.5;exitDx=0;exitDy=0;entryX=1;entryY=0.5;entryDx=0;entryDy=0;labelBackgroundColor=none;fontColor=default;strokeColor=#DDA15E;" edge="1" parent="1" source="UyfrRTIY1BK4k6403gO7-44" target="UyfrRTIY1BK4k6403gO7-183">
          <mxGeometry relative="1" as="geometry">
            <Array as="points">
              <mxPoint x="1050" y="115" />
              <mxPoint x="1050" y="40" />
              <mxPoint x="610" y="40" />
              <mxPoint x="610" y="245" />
            </Array>
          </mxGeometry>
        </mxCell>
        <mxCell id="UyfrRTIY1BK4k6403gO7-194" value="Alumno" style="shape=umlActor;verticalLabelPosition=bottom;verticalAlign=top;html=1;outlineConnect=0;labelBackgroundColor=none;fillColor=#BC6C25;strokeColor=#DDA15E;fontColor=#FEFAE0;rounded=1;" vertex="1" parent="1">
          <mxGeometry x="280" y="390" width="30" height="60" as="geometry" />
        </mxCell>
      </root>
    </mxGraphModel>
  </diagram>
</mxfile>
